<svg width="48" height="48" viewBox="0 0 48 48" fill="none" xmlns="http://www.w3.org/2000/svg">
<path d="M24 0C19.2533 0 14.6131 1.40758 10.6663 4.04473C6.71954 6.68188 3.6434 10.4302 1.8269 14.8156C0.0103988 19.201 -0.464881 24.0266 0.461164 28.6822C1.38721 33.3377 3.67299 37.6141 7.02945 40.9706C10.3859 44.327 14.6623 46.6128 19.3178 47.5388C23.9734 48.4649 28.799 47.9896 33.1844 46.1731C37.5698 44.3566 41.3181 41.2805 43.9553 37.3337C46.5924 33.3869 48 28.7467 48 24C47.9933 17.6369 45.4626 11.5363 40.9631 7.03686C36.4637 2.53744 30.3631 0.00671958 24 0ZM24 44.3077C19.9835 44.3077 16.0572 43.1167 12.7177 40.8852C9.37808 38.6538 6.77519 35.4822 5.23815 31.7714C3.70111 28.0607 3.29895 23.9775 4.08252 20.0382C4.8661 16.0989 6.80022 12.4804 9.6403 9.64029C12.4804 6.80021 16.0989 4.86609 20.0382 4.08251C23.9775 3.29894 28.0607 3.7011 31.7714 5.23814C35.4822 6.77518 38.6538 9.37807 40.8852 12.7176C43.1167 16.0572 44.3077 19.9835 44.3077 24C44.3016 29.3841 42.1601 34.5458 38.353 38.353C34.5459 42.1601 29.3841 44.3016 24 44.3077ZM20.3077 16.6154V31.3846C20.3077 31.8742 20.1132 32.3438 19.767 32.69C19.4208 33.0363 18.9512 33.2308 18.4615 33.2308C17.9719 33.2308 17.5023 33.0363 17.1561 32.69C16.8099 32.3438 16.6154 31.8742 16.6154 31.3846V16.6154C16.6154 16.1258 16.8099 15.6562 17.1561 15.31C17.5023 14.9637 17.9719 14.7692 18.4615 14.7692C18.9512 14.7692 19.4208 14.9637 19.767 15.31C20.1132 15.6562 20.3077 16.1258 20.3077 16.6154ZM31.3846 16.6154V31.3846C31.3846 31.8742 31.1901 32.3438 30.8439 32.69C30.4977 33.0363 30.0281 33.2308 29.5385 33.2308C29.0488 33.2308 28.5793 33.0363 28.233 32.69C27.8868 32.3438 27.6923 31.8742 27.6923 31.3846V16.6154C27.6923 16.1258 27.8868 15.6562 28.233 15.31C28.5793 14.9637 29.0488 14.7692 29.5385 14.7692C30.0281 14.7692 30.4977 14.9637 30.8439 15.31C31.1901 15.6562 31.3846 16.1258 31.3846 16.6154Z" fill="#323238"/>
</svg>
